<svg width="192" height="192" viewBox="0 0 192 192" xmlns="http://www.w3.org/2000/svg"><path d="M133.4 71.6H133.3C133.3 71.6 133.1 71.6 133.1 71.5H133C128.1 69.3 122.7 69 116.7 69.7C119.8 65.6 122.7 60.8 124.8 55.3C125.5 53.6 126 51.9 126 51.9C128.3 44.3 128.7 36.4 127.4 28.3V28C126.9 26.2 126.4 24.4 125.8 22.6C124.9 20 122.4 13.2 116.2 7.1C114.8 5.7 113.3 4.5 111.7 3.3L107.8 0.5L104.7 4.2C99.9 10 94.7 15.5 89.3 20.4C84.5 24.7 78.6 29.6 72.8 34.3C61.3 43.7 50.3 52.6 45.5 59.7C39.7 67.4 36.2 76.3 35.3 85.5C35.1 87.8 34.7 91.7 35.5 96.7C38.3 113 50.8 121.8 54.5 124.2C56.4 125.4 62.3 129 70.8 130.1C71.4 130.1 72 130.2 72.6 130.3C71.6 131.9 70.6 133.7 69.7 135.7C65 146.4 65.8 156.4 66.8 161.4C69.6 176.7 79.9 185.8 84.2 189L88.6 192.3L91.6 187.7C98.3 177.7 108.5 169.8 119.3 161.4C132.1 151.5 145.3 141.1 153 126.6C164.9 101.8 151.9 81.3 133.6 71.8L133.4 71.6ZM79.5 42C85.4 37.2 91.1 32.4 96.1 27.9C100.6 23.8 105 19.3 109.1 14.6C113.3 19 115.1 23.7 115.8 25.8C116.3 27.1 116.7 28.5 117 29.8C118.1 36.2 117.7 42.5 115.9 48.5C115.9 48.5 115.5 49.9 115 51.2C110.9 61.9 103.4 69.2 97.6 73.6C94.4 74.9 86.6 77.9 80.8 78.7C71.1 80.1 64.8 77.6 61.2 75.3C58.5 73.5 56.5 71.3 55.5 68.6C55.3 68.2 55.2 67.8 55.1 67.4C55.1 67.3 55.1 67.1 55.1 67C55.1 66.7 55 66.4 54.9 66.1C54.9 65.9 54.9 65.8 54.9 65.6C54.9 65.3 54.9 65 54.9 64.6C54.9 64.5 54.9 64.4 54.9 64.2C59.3 58.4 69.6 50.1 79.5 42ZM59.6 114.6C57.6 113.4 47.7 107 45.5 94.7C44.9 91.1 45.2 88.3 45.4 86.3C45.7 83 46.5 79.7 47.7 76.5C47.9 76.8 48.1 77.2 48.4 77.5C48.4 77.5 48.4 77.5 48.4 77.6C48.7 78.1 49.1 78.5 49.4 78.9C49.5 79 49.6 79.1 49.7 79.3C50 79.6 50.3 80 50.6 80.3C50.6 80.3 50.8 80.5 50.9 80.6C51.3 81 51.7 81.4 52.2 81.8C52.2 81.8 52.4 82 52.5 82.1C52.9 82.4 53.2 82.7 53.6 83C53.7 83.1 53.9 83.2 54 83.3C54.5 83.6 55 84 55.5 84.3C55.8 84.5 56.1 84.7 56.4 84.9C56.4 84.9 56.6 84.9 56.7 85C56.9 85.1 57.2 85.3 57.4 85.4C57.5 85.4 57.6 85.5 57.7 85.6C58 85.7 58.2 85.9 58.5 86C58.6 86 58.7 86.1 58.8 86.2C59.2 86.4 59.5 86.6 59.9 86.7C60.3 86.9 60.7 87.1 61.2 87.2C61.2 87.2 61.4 87.2 61.5 87.2C61.8 87.3 62.2 87.5 62.6 87.6C62.7 87.6 62.9 87.6 63 87.7C63.3 87.8 63.7 87.9 64.1 88C64.2 88 64.3 88 64.5 88.1C64.9 88.2 65.4 88.3 65.9 88.5C65.9 88.5 65.9 88.5 66 88.5C66.5 88.6 67.1 88.7 67.6 88.8H67.8C68.3 88.8 68.7 89 69.2 89C69.4 89 69.5 89 69.7 89C70.1 89 70.6 89.1 71 89.2C71.2 89.2 71.3 89.2 71.5 89.2C72 89.2 72.5 89.2 73 89.3C73.1 89.3 73.2 89.3 73.3 89.3C73.9 89.3 74.5 89.3 75.2 89.3C75.9 89.3 75.2 89.3 75.3 89.3C75.3 89.3 75.4 89.3 75.5 89.3C76.1 89.3 76.7 89.3 77.3 89.3C77.5 89.3 77.7 89.3 77.9 89.3C78.4 89.3 78.9 89.3 79.4 89.2C79.6 89.2 79.8 89.2 80 89.2C80.7 89.2 81.4 89 82.1 88.9C82.1 88.9 82.1 88.9 82.2 88.9C90.2 87.7 99.5 83.9 101.5 83.1H102.1C102.1 83 102.4 82.8 102.4 82.8C112.5 80.1 122 78 128 80.3C128.2 80.5 128.4 80.7 128.6 80.8C128.6 80.8 128.7 80.9 128.8 81C128.8 81 128.8 81 128.8 81.1C128.8 81.3 128.6 82.6 125.3 85.5C124.3 86.4 123.1 87.3 121.8 88.3C118.8 90.5 115.2 93 111.1 95.7C110 96.4 109 97.1 107.9 97.9C107.9 97.9 107.8 97.9 107.7 98C106.6 98.7 105.6 99.5 104.5 100.2C104.4 100.2 104.2 100.4 104.1 100.5C103 101.2 101.9 102 100.8 102.8C100.7 102.8 100.5 103 100.4 103.1C99.3 103.9 98.1 104.7 97 105.5C96.9 105.5 96.7 105.7 96.6 105.8C95.4 106.7 94.3 107.5 93.1 108.4C93.1 108.4 92.9 108.5 92.8 108.6C90.4 110.4 88 112.4 85.6 114.4C85.5 114.5 85.3 114.6 85.2 114.8C84.1 115.8 83 116.7 81.9 117.7C81.8 117.8 81.7 117.9 81.5 118C79.4 118.5 77.2 118.7 75.1 118.7C73.8 118.7 72.6 118.7 71.4 118.5C65.2 117.8 61 115.5 59.6 114.6ZM143.3 121.6C136.7 134.1 125.2 143.3 112.7 152.9C103.3 160.2 93.6 167.7 86.2 176.9C82.6 173.3 78.2 167.4 76.7 159.2C76.1 156.1 75.2 148 78.9 139.6C81.4 134 85 130.4 86.5 128.9C87.4 128 88.4 127.1 89.3 126.2C89.8 125.7 90.4 125.2 90.9 124.7C91.6 124.1 92.4 123.4 93.1 122.8C93.6 122.3 94.2 121.9 94.7 121.4C95.4 120.8 96.2 120.2 96.9 119.6C97.5 119.1 98 118.7 98.6 118.3C99.3 117.7 100 117.2 100.8 116.7C101.4 116.3 102 115.8 102.5 115.4C103.2 114.9 103.9 114.4 104.6 113.8C105.2 113.4 105.7 113 106.3 112.6C107 112.1 107.8 111.6 108.5 111.1C109 110.7 109.6 110.4 110.1 110C110.9 109.4 111.8 108.9 112.6 108.3C113 108 113.4 107.8 113.7 107.5C114.9 106.7 116 105.9 117.1 105.2C117.5 104.9 117.9 104.7 118.3 104.4C118.3 104.4 118.3 104.4 118.4 104.4C118.7 104.2 119 104 119.3 103.8C119.6 103.6 120 103.4 120.3 103.1C120.5 103 120.7 102.9 120.8 102.7C121.3 102.4 121.8 102.1 122.2 101.7C122.4 101.6 122.5 101.5 122.7 101.4C123.1 101.1 123.4 100.9 123.8 100.6C123.9 100.6 124.1 100.4 124.2 100.3C124.7 100 125.1 99.7 125.6 99.3C125.7 99.3 125.8 99.1 126 99C126.4 98.7 126.7 98.5 127.1 98.2C127.2 98.2 127.3 98 127.5 97.9C127.9 97.6 128.4 97.3 128.8 96.9C128.8 96.9 129 96.8 129 96.7C129.3 96.4 129.7 96.2 130 95.9C130.1 95.9 130.2 95.7 130.3 95.6C130.7 95.3 131.1 95 131.5 94.7C131.5 94.7 131.5 94.7 131.6 94.7C131.9 94.4 132.3 94.1 132.6 93.8C132.6 93.8 132.8 93.6 132.9 93.5C133.2 93.2 133.5 92.9 133.8 92.7C133.8 92.7 133.8 92.7 133.9 92.6C134.2 92.3 134.5 92 134.8 91.7C134.8 91.7 135 91.5 135 91.4C135.2 91.1 135.5 90.9 135.7 90.6C135.7 90.6 135.8 90.5 135.9 90.4C136.2 90.1 136.4 89.8 136.6 89.5C136.6 89.5 136.7 89.3 136.8 89.2C137 89 137.2 88.7 137.3 88.5C137.3 88.5 137.4 88.3 137.5 88.2C137.7 87.9 137.9 87.6 138 87.3C148.7 97.6 148.2 111.1 143.3 121.6Z"/></svg>