<svg width="256" height="256" viewBox="0 0 24 24" fill="none" xmlns="http://www.w3.org/2000/svg">
    <defs>
        <linearGradient id="shield-gradient" x1="50%" y1="0%" x2="50%" y2="100%">
            <stop offset="0%" style="stop-color:#3b82f6;"/>
            <stop offset="100%" style="stop-color:#1d4ed8;"/>
        </linearGradient>
        <linearGradient id="fire-gradient" x1="50%" y1="0%" x2="50%" y2="100%">
            <stop offset="0%" style="stop-color:#fbbf24;"/>
            <stop offset="100%" style="stop-color:#f97316;"/>
        </linearGradient>
    </defs>
    
    <path d="M12 2L4 6V12.5C4 16.92 7.5 21.16 12 22C16.5 21.16 20 16.92 20 12.5V6L12 2Z" 
          stroke="url(#shield-gradient)" stroke-width="1.5" fill="rgba(59, 130, 246, 0.1)"/>
          
    <path d="M12 6C10 9 10 11 11 14C11.5 15.5 12.5 15.5 13 14C14 11 14 9 12 6Z" 
          fill="url(#fire-gradient)"/>
    <path d="M12 10C11.5 11.5 11 13 12 15C13 13 12.5 11.5 12 10Z" 
          fill="#fff" opacity="0.5"/>
</svg>